<?xml version="1.0" standalone="no"?>
<!DOCTYPE svg PUBLIC "-//W3C//DTD SVG 20010904//EN"
 "http://www.w3.org/TR/2001/REC-SVG-20010904/DTD/svg10.dtd">
<svg version="1.0" xmlns="http://www.w3.org/2000/svg"
 width="50.000000pt" height="50.000000pt" viewBox="0 0 50.000000 50.000000"
 preserveAspectRatio="xMidYMid meet">

<g transform="translate(0.000000,50.000000) scale(0.100000,-0.100000)"
fill="#000000" stroke="none">
<path d="M287 456 c-3 -8 -3 -24 0 -35 4 -15 1 -21 -11 -21 -9 0 -16 -8 -16
-20 0 -13 -7 -20 -19 -20 -15 0 -23 -15 -38 -72 -18 -65 -23 -73 -43 -73 -21
0 -26 8 -38 58 -12 50 -17 57 -38 57 -23 0 -24 -3 -24 -60 0 -53 -2 -60 -20
-60 -17 0 -20 -7 -20 -39 0 -22 4 -43 10 -46 17 -10 11 -25 -10 -25 -11 0 -20
-4 -20 -10 0 -12 50 -13 69 -1 7 5 25 4 42 -2 20 -8 37 -8 56 -1 19 7 37 7 55
0 19 -6 37 -6 55 0 19 7 37 7 56 0 18 -7 36 -7 55 0 17 6 36 7 53 0 15 -5 35
-5 45 -1 17 8 15 9 -8 13 -33 4 -34 7 -8 57 11 22 20 50 20 62 0 21 -5 23 -51
23 l-52 0 6 43 c2 23 8 50 12 60 6 14 1 17 -29 17 -29 0 -36 4 -36 20 0 12 -7
20 -16 20 -12 0 -15 6 -11 21 6 23 -1 49 -13 49 -4 0 -10 -6 -13 -14z m33 -86
c0 -5 -9 -10 -20 -10 -11 0 -20 5 -20 10 0 6 9 10 20 10 11 0 20 -4 20 -10z
m60 -45 c0 -8 -5 -15 -11 -15 -7 0 -9 -12 -5 -35 l7 -35 -41 0 c-27 0 -43 -5
-46 -15 -4 -10 -20 -15 -44 -15 l-38 0 15 53 c8 28 16 58 18 65 3 8 27 12 75
12 56 0 70 -3 70 -15z m-272 -72 c9 -39 8 -43 -9 -43 -16 0 -19 8 -19 52 0 59
12 55 28 -9z m362 -38 c0 -26 -38 -89 -61 -100 -32 -17 -71 -19 -85 -5 -6 6
-21 6 -42 -2 -25 -10 -39 -10 -64 0 -23 8 -35 9 -45 1 -7 -7 -27 -9 -45 -5
-18 4 -41 8 -51 9 -23 4 -37 25 -37 55 0 22 2 22 125 22 102 0 127 3 131 15 5
12 25 15 90 15 46 0 84 -2 84 -5z"/>
<path d="M260 290 c0 -11 7 -20 15 -20 8 0 15 9 15 20 0 11 -7 20 -15 20 -8 0
-15 -9 -15 -20z"/>
<path d="M310 290 c0 -11 7 -20 15 -20 8 0 15 9 15 20 0 11 -7 20 -15 20 -8 0
-15 -9 -15 -20z"/>
<path d="M320 190 c0 -5 5 -10 10 -10 6 0 10 5 10 10 0 6 -4 10 -10 10 -5 0
-10 -4 -10 -10z"/>
<path d="M360 190 c0 -5 5 -10 10 -10 6 0 10 5 10 10 0 6 -4 10 -10 10 -5 0
-10 -4 -10 -10z"/>
<path d="M400 190 c0 -5 5 -10 10 -10 6 0 10 5 10 10 0 6 -4 10 -10 10 -5 0
-10 -4 -10 -10z"/>
<path d="M60 70 c-8 -5 -25 -10 -37 -10 -13 0 -23 -4 -23 -10 0 -12 50 -13 69
-1 7 5 25 4 42 -2 19 -8 37 -8 56 -1 19 7 37 7 56 0 18 -7 36 -7 55 0 18 7 36
7 55 0 18 -7 37 -7 55 0 17 6 36 7 53 0 15 -5 35 -5 45 -1 16 7 13 9 -16 17
-41 11 -53 11 -98 2 -18 -4 -38 -2 -45 5 -10 8 -22 7 -45 -1 -25 -10 -39 -10
-64 0 -23 8 -35 9 -45 1 -12 -11 -52 -9 -83 4 -8 4 -22 2 -30 -3z"/>
</g>
</svg>
